<svg width="802" height="802" viewBox="0 0 802 802" fill="none" xmlns="http://www.w3.org/2000/svg">
<path d="M801 401C801 621.914 621.914 801 401 801C180.086 801 1 621.914 1 401C1 180.086 180.086 1 401 1C621.914 1 801 180.086 801 401Z" fill="#F8F8FF" stroke="black" stroke-opacity="0.5"/>
<path d="M402.001 1V801" stroke="black" stroke-opacity="0.5"/>
<path d="M298.283 14.4707L505.338 787.211" stroke="black" stroke-opacity="0.5"/>
<path d="M201.433 54.3501L601.433 747.17" stroke="black" stroke-opacity="0.5"/>
<path d="M118.154 117.446L683.839 683.132" stroke="black" stroke-opacity="0.5"/>
<path d="M54.8501 200.567L747.67 600.567" stroke="black" stroke-opacity="0.5"/>
<path d="M14.7295 297.317L787.47 504.372" stroke="black" stroke-opacity="0.5"/>
<path d="M1 401.001H801" stroke="black" stroke-opacity="0.5"/>
<path d="M14.4707 504.372L787.211 297.317" stroke="black" stroke-opacity="0.5"/>
<path d="M54.3501 600.567L747.17 200.567" stroke="black" stroke-opacity="0.5"/>
<path d="M117.446 683.132L683.132 117.447" stroke="black" stroke-opacity="0.5"/>
<path d="M200.567 747.17L600.567 54.3501" stroke="black" stroke-opacity="0.5"/>
<path d="M297.317 787.211L504.372 14.4707" stroke="black" stroke-opacity="0.5"/>
<path d="M577 400.557C577 496.957 498.655 575.114 402 575.114C305.345 575.114 227 496.957 227 400.557C227 304.157 305.345 226 402 226C498.655 226 577 304.157 577 400.557Z" fill="#996546" stroke="black" stroke-opacity="0.5"/>
</svg>
