<svg width="57" height="57" viewBox="0 0 57 57" fill="none" xmlns="http://www.w3.org/2000/svg">
<path d="M56.0688 28.4313C56.0688 43.6191 43.7566 55.9313 28.5688 55.9313C13.3809 55.9313 1.06876 43.6191 1.06876 28.4313C1.06876 13.2435 13.3809 0.931274 28.5688 0.931274C43.7566 0.931274 56.0688 13.2435 56.0688 28.4313Z" stroke="#18171A"/>
<path d="M28.5688 1V56" stroke="#18171A"/>
<path d="M21.4382 1.92615L35.6732 55.0521" stroke="#18171A"/>
<path d="M14.7798 4.66785L42.2798 52.2992" stroke="#18171A"/>
<path d="M9.05434 9.00562L47.9452 47.8965" stroke="#18171A"/>
<path d="M4.70219 14.7202L52.3336 42.2202" stroke="#18171A"/>
<path d="M1.94389 21.3718L55.0698 35.6069" stroke="#18171A"/>
<path d="M1 28.5001H56" stroke="#18171A"/>
<path d="M1.9261 35.6069L55.052 21.3718" stroke="#18171A"/>
<path d="M4.66782 42.2202L52.2992 14.7202" stroke="#18171A"/>
<path d="M9.00566 47.8966L47.8966 9.00574" stroke="#18171A"/>
<path d="M14.7202 52.2992L42.2202 4.66785" stroke="#18171A"/>
<path d="M21.3718 55.0521L35.6068 1.92615" stroke="#18171A"/>
<path d="M39.5 28.5C39.5 34.5748 34.5755 39.5 28.5 39.5C22.4245 39.5 17.5 34.5748 17.5 28.5C17.5 22.4252 22.4245 17.5 28.5 17.5C34.5755 17.5 39.5 22.4252 39.5 28.5Z" fill="white"/>
<path d="M39.5 28.5C39.5 34.5748 34.5755 39.5 28.5 39.5C22.4245 39.5 17.5 34.5748 17.5 28.5C17.5 22.4252 22.4245 17.5 28.5 17.5C34.5755 17.5 39.5 22.4252 39.5 28.5Z" stroke="#18171A"/>
<path d="M39.5 28.5C39.5 34.5748 34.5755 39.5 28.5 39.5C22.4245 39.5 17.5 34.5748 17.5 28.5C17.5 22.4252 22.4245 17.5 28.5 17.5C34.5755 17.5 39.5 22.4252 39.5 28.5Z" stroke="black" stroke-opacity="0.2"/>
</svg>
